<svg width="80" height="80" viewBox="0 0 80 80" fill="none" xmlns="http://www.w3.org/2000/svg">
  <path d="M62.083 42.375C61.667 34.75 58.333 27.25 52.5 21.75C46.667 16.25 38.917 13.5 31.042 13.5C23.167 13.5 15.417 16.25 9.583 21.75C3.75 27.25 0.417 34.75 0 42.375V43.875C0.417 51.5 3.75 59 9.583 64.5C15.417 70 23.167 72.75 31.042 72.75C38.917 72.75 46.667 70 52.5 64.5C58.333 59 61.667 51.5 62.083 43.875V42.375ZM11.667 23.875C16.667 19.25 23.458 16.75 30.208 16.875C37.083 16.75 43.875 19.25 48.875 23.875C53.75 28.375 56.667 34.75 56.667 41.5C56.667 48.25 53.75 54.625 48.875 59.125C43.875 63.75 37.083 66.25 30.208 66.125C23.458 66.25 16.667 63.75 11.667 59.125C6.667 54.625 3.75 48.25 3.75 41.5C3.75 34.75 6.667 28.375 11.667 23.875Z" fill="#8056F4"/>
  <path fill-rule="evenodd" clip-rule="evenodd" d="M31.25 5.25C18.333 5.25 7.5 16.0833 7.5 29C7.5 41.9167 18.333 52.75 31.25 52.75C44.167 52.75 55 41.9167 55 29C55 16.0833 44.167 5.25 31.25 5.25ZM2.75 29C2.75 13.4167 15.417 0.75 31 0.75C46.583 0.75 59.25 13.4167 59.25 29C59.25 44.5833 46.583 57.25 31 57.25C15.417 57.25 2.75 44.5833 2.75 29Z" fill="#8056F4"/>
  <path d="M33.333 48.2083C32.5 48.2083 31.667 47.7917 31.167 47.125C30.5 46.2083 30.667 44.875 31.583 44.2083C35.083 41.5417 37.75 37.9583 39.25 33.875C40.75 29.7917 40.75 25.3333 39.25 21.25C38.917 20.1667 39.417 19 40.5 18.6667C41.583 18.3333 42.75 18.8333 43.083 19.9167C44.917 24.75 44.917 30.0417 43.083 34.875C41.333 39.7083 38.167 43.9583 34 47.125C33.75 47.7917 33.583 48.2083 33.333 48.2083Z" fill="#8056F4"/>
  <path d="M41.583 58.5C40.583 58.5 39.75 57.6667 39.75 56.6667V41.9167C39.75 40.9167 40.583 40.0833 41.583 40.0833C42.583 40.0833 43.417 40.9167 43.417 41.9167V56.6667C43.417 57.6667 42.583 58.5 41.583 58.5Z" fill="#8056F4"/>
  <path d="M21.75 69.75H19.25C18.25 69.75 17.5 68.9167 17.5 68C17.5 67 18.333 66.25 19.25 66.25H21.75C22.75 66.25 23.5 67.0833 23.5 68C23.5 69 22.75 69.75 21.75 69.75Z" fill="#8056F4"/>
  <path d="M54.417 32.5H40.417C39.5 32.5 38.667 31.6667 38.667 30.75C38.667 29.8333 39.5 29 40.417 29H54.417C55.333 29 56.167 29.8333 56.167 30.75C56.167 31.6667 55.333 32.5 54.417 32.5Z" fill="#8056F4"/>
  <path d="M22.083 32.5H8.083C7.167 32.5 6.333 31.6667 6.333 30.75C6.333 29.8333 7.167 29 8.083 29H22.083C23 29 23.833 29.8333 23.833 30.75C23.833 31.6667 23 32.5 22.083 32.5Z" fill="#8056F4"/>
  <path d="M12.833 63.833C11.75 63.833 10.833 62.917 10.833 61.833V47.083C10.833 46 11.75 45.083 12.833 45.083C13.917 45.083 14.833 46 14.833 47.083V61.833C14.833 62.917 13.917 63.833 12.833 63.833Z" fill="#8056F4"/>
  <path d="M28.333 63.333C27.5 63.333 26.667 62.875 26.167 62.25C25.5 61.333 25.667 60 26.583 59.333C30.083 56.667 32.75 53.083 34.25 49C35.75 44.917 35.75 40.458 34.25 36.375C33.917 35.292 34.417 34.125 35.5 33.792C36.583 33.458 37.75 33.958 38.083 35.042C39.917 39.875 39.917 45.167 38.083 50C36.25 54.833 33.083 59.083 28.917 62.25C28.75 63 28.5 63.333 28.333 63.333Z" fill="#8056F4"/>
  <path d="M0 58.5C-0.5 58.5 -1 57.6667 -1 56.6667V41.9167C-1 40.9167 -0.5 40.0833 0 40.0833C1 40.0833 2 40.9167 2 41.9167V56.6667C2 57.6667 1 58.5 0 58.5Z" fill="#8056F4"/>
  <path d="M31.25 18.0833C32.333 18.0833 33.25 17.1667 33.25 16.0833V12.5C33.25 11.4167 32.333 10.5 31.25 10.5C30.167 10.5 29.25 11.4167 29.25 12.5V16.0833C29.25 17.1667 30.167 18.0833 31.25 18.0833Z" fill="#8056F4"/>
  <path d="M42.167 69.75H39.667C38.667 69.75 37.917 68.9167 37.917 68C37.917 67 38.75 66.25 39.667 66.25H42.167C43.167 66.25 43.917 67.0833 43.917 68C43.917 69 43.167 69.75 42.167 69.75Z" fill="#8056F4"/>
  <path d="M23.833 63.583C23.583 63.583 23.417 63.583 23.167 63.5C22.083 63.167 21.583 62 21.917 60.917C23.417 56.833 23.417 52.375 21.917 48.292C20.417 44.208 17.75 40.625 14.25 37.958C13.333 37.292 13.167 35.958 13.833 35.042C14.5 34.125 15.833 33.958 16.75 34.625C20.917 37.792 24.083 42.042 25.833 46.875C27.667 51.708 27.667 57 25.833 61.833C25.5 62.917 24.667 63.583 23.833 63.583Z" fill="#8056F4"/>
  <path d="M40.5 61.25C39.417 61.25 38.583 60.417 38.583 59.333C38.583 58.25 39.417 57.417 40.5 57.417H52.083C53.167 57.417 54 58.25 54 59.333C54 60.417 53.167 61.25 52.083 61.25H40.5Z" fill="#8056F4"/>
  <path d="M12.083 61.25H0.5C-0.583 61.25 -1.417 60.417 -1.417 59.333C-1.417 58.25 -0.583 57.417 0.5 57.417H12.083C13.167 57.417 14 58.25 14 59.333C14 60.417 13.167 61.25 12.083 61.25Z" fill="#8056F4"/>
  <path d="M31.25 61.25C30.167 61.25 29.25 62.167 29.25 63.25V66.833C29.25 67.917 30.167 68.833 31.25 68.833C32.333 68.833 33.25 67.917 33.25 66.833V63.25C33.25 62.167 32.333 61.25 31.25 61.25Z" fill="#8056F4"/>
</svg> 